<svg width="77" height="80" viewBox="0 0 77 80" fill="none" xmlns="http://www.w3.org/2000/svg">
<path d="M75.061 22.621L72.0735 21.8392V19.466C72.0735 18.9216 71.7245 18.4469 71.1941 18.2934L67.1875 17.0788V14.9429C67.1875 14.0914 66.6151 13.3235 65.7915 13.0862C58.8114 11.1179 52.0128 11.8298 46.1636 15.1802C42.157 17.4697 39.3929 20.4851 37.6618 22.8444C34.6604 18.07 30.1792 14.7754 24.5393 13.1839C18.8994 11.5925 13.3294 12.0811 9.99288 13.0583C9.16924 13.2817 8.61083 14.0355 8.61083 14.8871V17.1626L5.20456 18.3352C4.71596 18.4888 4.38091 18.9634 4.38091 19.4939V22.0486L1.19801 23.5563C0.779202 23.7518 0.5 24.1845 0.5 24.6592V60.2575C0.5 60.6623 0.695442 61.0392 1.04444 61.2766C1.25385 61.4162 1.47721 61.486 1.72849 61.486C1.88205 61.486 2.06353 61.4441 2.20314 61.4022C10.6071 57.8563 18.2712 56.4464 24.9581 57.2142C30.4584 57.8563 34.1439 59.7968 36.4752 61.2486C36.7265 61.5558 37.1174 61.7372 37.5362 61.7372C37.9829 61.7372 38.3738 61.5278 38.639 61.2068C40.4539 60.09 44.6 57.5771 50.7285 56.7256C57.7505 55.6925 65.6658 56.9908 74.2792 60.5227C74.6701 60.6623 75.1029 60.6344 75.4379 60.3971C75.773 60.1737 75.9824 59.7828 75.9824 59.378V23.8076C75.9684 23.2492 75.5915 22.7606 75.061 22.621ZM25.2513 54.7293C18.5784 53.9615 11.0818 55.2039 2.94302 58.4147V25.413L4.39487 24.729V52.1746C4.39487 52.5654 4.54844 52.9145 4.85556 53.1378C5.14872 53.3612 5.52564 53.4729 5.88861 53.3891C15.2838 51.309 22.5151 52.7749 27.7222 55.1202C26.9405 54.9526 26.1168 54.827 25.2513 54.7293ZM14.5997 49.9549C12.1846 49.9549 9.602 50.1783 6.80998 50.6948V20.3734L8.61083 19.7592V44.8874C8.61083 45.5296 8.91795 46.088 9.3926 46.437C9.3926 46.437 9.3926 46.437 9.3926 46.4509C9.57408 46.6184 9.8114 46.7301 10.0766 46.758C10.2162 46.7999 10.3698 46.8139 10.5373 46.8139C10.7607 46.8139 10.9841 46.772 11.1795 46.7022C16.8333 46.409 22.194 47.9586 27.108 51.337C28.0992 52.021 29.0066 52.733 29.8442 53.4449C25.9493 51.4905 20.8957 49.9549 14.5997 49.9549ZM28.49 49.3267C23.5202 45.9065 18.1456 44.2033 12.4499 44.2173V16.4367C18.006 15.3478 30.4026 15.599 35.7633 27.4093C35.861 27.6048 35.9866 27.7862 36.1262 27.9398V56.5441C34.451 54.3942 31.9382 51.6999 28.49 49.3267ZM38.9322 56.6418V27.9119C39.0439 27.8002 39.1277 27.6746 39.2114 27.535C40.1747 25.8039 42.9527 21.4623 48.104 18.5028C52.7388 15.8643 57.8621 15.1523 63.3903 16.4087V44.1754C57.5271 44.0917 51.971 45.7669 46.8476 49.2429C43.2599 51.672 40.6493 54.464 38.9322 56.6418ZM45.1584 53.6125C46.0798 52.8307 47.0989 52.021 48.2157 51.2672C52.7946 48.182 57.7225 46.6184 62.9017 46.6184C63.516 46.6184 64.1302 46.6464 64.7445 46.6882C64.926 46.7441 65.1214 46.772 65.3168 46.772C66.3778 46.772 67.2433 45.9204 67.2015 44.8874V19.6335L69.6166 20.3734V50.6948C62.3154 49.3686 55.4331 49.7874 49.165 51.9512C47.6992 52.4398 46.359 53.0122 45.1584 53.6125ZM73.5114 57.5353C67.1317 55.1062 61.1148 53.8777 55.5168 53.8777C53.7718 53.8777 52.0408 54.0033 50.3656 54.2127C50.0724 54.2686 49.7932 54.2965 49.514 54.3523C58.3926 51.2672 67.3131 52.6632 70.5798 53.3612C70.9428 53.431 71.3337 53.3472 71.6129 53.1099C71.8921 52.8726 72.0735 52.5375 72.0735 52.1606V24.352L73.5254 24.7429V57.5353H73.5114Z" fill="#020303"/>
<path d="M20.0295 28.54C20.0155 28.526 20.0015 28.526 19.9876 28.526C19.5688 28.3725 19.136 28.2329 18.6893 28.0933C18.6753 28.0933 18.6474 28.0933 18.6335 28.1072C18.6195 28.1212 18.6055 28.1631 18.5916 28.177L18.5776 28.2189C18.5776 28.2329 18.5776 28.2608 18.5776 28.2748C18.5776 28.2887 18.5916 28.3166 18.6195 28.3166C18.7033 28.3585 18.7591 28.3725 18.8149 28.4004C18.8708 28.4144 18.8847 28.4562 18.8847 28.4562C18.8847 28.4562 18.8987 28.4702 18.8847 28.526C18.8847 28.54 18.8847 28.54 18.8847 28.554V28.5679C18.8708 28.5958 18.8568 28.6238 18.8289 28.6656C18.6893 28.903 18.5637 29.1403 18.4241 29.3776C18.0053 29.238 17.5725 29.1124 17.1537 29.0007C17.2793 28.7773 17.4189 28.526 17.5446 28.3027C17.5864 28.2329 17.6144 28.177 17.6562 28.1491C17.6981 28.0933 17.726 28.0793 17.74 28.0793C17.754 28.0653 17.7958 28.0653 17.8657 28.0653C17.9215 28.0653 17.9913 28.0793 18.0751 28.1072C18.1169 28.1212 18.1449 28.1072 18.1588 28.0653L18.2007 27.9955C18.2007 27.9816 18.2007 27.9537 18.2007 27.9397C18.1867 27.9257 18.1588 27.8978 18.1449 27.8978C17.7121 27.7582 17.2514 27.6326 16.8186 27.5069C16.7628 27.493 16.7349 27.5069 16.707 27.5488L16.6651 27.6186C16.6651 27.6326 16.6651 27.6605 16.6651 27.6745C16.6651 27.6884 16.679 27.7163 16.707 27.7163C16.7907 27.7582 16.8466 27.7722 16.9024 27.8001C16.9582 27.8141 16.9722 27.8559 16.9722 27.8559C16.9722 27.8559 16.9862 27.8699 16.9722 27.9257C16.9582 27.9676 16.9303 28.0095 16.9024 28.0793C16.5813 28.6517 16.2742 29.238 15.995 29.8104C15.9392 29.8941 15.9112 29.95 15.8694 30.0058C15.8275 30.0616 15.7996 30.0756 15.7996 30.0756C15.7996 30.0896 15.7577 30.0896 15.6879 30.0896C15.632 30.0896 15.5483 30.0896 15.4645 30.0756C15.4226 30.0756 15.3947 30.0896 15.3807 30.1314L15.3389 30.2012C15.3389 30.2152 15.3389 30.2431 15.3389 30.2571C15.3528 30.271 15.3807 30.299 15.3947 30.299C15.8275 30.4106 16.2742 30.5223 16.693 30.648C16.7349 30.6619 16.7628 30.648 16.7768 30.6061L16.8186 30.5363C16.8186 30.5223 16.8186 30.4944 16.8186 30.4804C16.8186 30.4665 16.8047 30.4386 16.7768 30.4386C16.693 30.3967 16.6372 30.3688 16.5813 30.3548C16.5255 30.3408 16.5115 30.3129 16.5115 30.299C16.5115 30.299 16.4976 30.285 16.5115 30.2292C16.5255 30.1733 16.5534 30.1175 16.5813 30.0477C16.707 29.7824 16.8326 29.5172 16.9722 29.2799C17.391 29.4055 17.8098 29.5312 18.2286 29.6708C18.103 29.8802 17.9773 30.1314 17.8657 30.3548C17.8098 30.4386 17.7819 30.4944 17.74 30.5502C17.6981 30.6061 17.6842 30.62 17.6702 30.62C17.6702 30.634 17.6283 30.634 17.5585 30.634C17.4887 30.634 17.4189 30.62 17.3352 30.5921C17.2933 30.5782 17.2654 30.5921 17.2514 30.634L17.2095 30.7038C17.2095 30.7178 17.2095 30.7457 17.2095 30.7597C17.2235 30.7736 17.2514 30.8015 17.2654 30.8015C17.6842 30.9272 18.103 31.0668 18.5218 31.2064H18.5357C18.5497 31.2064 18.5916 31.1924 18.6195 31.1924L18.6614 31.1226C18.6614 31.1087 18.6614 31.0807 18.6614 31.0668C18.6614 31.0528 18.6474 31.0249 18.6195 31.0249C18.5497 30.983 18.4799 30.9691 18.438 30.9411C18.3822 30.9272 18.3682 30.8853 18.3682 30.8853C18.3682 30.8853 18.3543 30.8713 18.3682 30.8155C18.3822 30.7736 18.4101 30.7317 18.438 30.6619C18.7591 30.0896 19.0802 29.4893 19.4152 28.9309C19.4571 28.8611 19.485 28.8052 19.5269 28.7773C19.5827 28.7354 19.5967 28.7215 19.6107 28.7215C19.6246 28.7215 19.6665 28.7215 19.7363 28.7215C19.7921 28.7354 19.8619 28.7634 19.9457 28.7773C19.9876 28.7913 20.0155 28.7773 20.0295 28.7354L20.0713 28.6656C20.0713 28.6517 20.0713 28.6238 20.0713 28.6098C20.0713 28.554 20.0574 28.54 20.0295 28.54ZM18.2845 30.7317C18.2705 30.7597 18.2705 30.7736 18.2705 30.8015C18.2705 30.7736 18.2845 30.7597 18.2845 30.7317ZM18.1309 27.9257H18.1169C18.0332 27.8978 17.9494 27.8699 17.8657 27.8559C17.9494 27.8699 18.0471 27.8839 18.1309 27.9257ZM17.5446 27.7443C17.2933 27.6745 17.042 27.6047 16.8047 27.5349C17.056 27.5907 17.2933 27.6745 17.5446 27.7443ZM16.7209 30.5084C16.7349 30.4944 16.7349 30.4804 16.7488 30.4525C16.7488 30.4525 16.7488 30.4525 16.7628 30.4525L16.7209 30.5084Z" fill="#020303"/>
<path d="M23.9949 30.341C24.0368 30.341 24.0786 30.341 24.1205 30.3549C24.1764 30.3689 24.2043 30.4108 24.2322 30.4247C24.2462 30.4387 24.288 30.4387 24.302 30.4387C24.316 30.4387 24.3439 30.4247 24.3578 30.3968L24.4137 30.313C24.4276 30.2991 24.4276 30.2712 24.4137 30.2432C24.4137 30.2293 24.4137 30.2293 24.4137 30.2293C24.3578 30.1874 24.288 30.1455 24.2322 30.1036C24.0926 30.0478 23.9809 29.992 23.8553 29.978C23.7576 29.964 23.6598 29.964 23.5761 29.978C23.5621 29.978 23.5621 29.978 23.5621 29.978C23.3806 30.0338 23.2131 30.1734 23.0596 30.4108C22.9898 30.5364 22.906 30.6341 22.8362 30.7598C22.7664 30.8435 22.6966 30.9412 22.6268 31.025C22.557 31.1088 22.4872 31.1646 22.4034 31.2065C22.3336 31.2484 22.2219 31.2484 22.1242 31.2484C22.0405 31.2484 21.9288 31.2205 21.8031 31.1646C22.0265 30.7877 22.2778 30.4247 22.5151 30.0338C22.571 29.9501 22.6128 29.8803 22.6687 29.8524C22.6966 29.8384 22.7245 29.8244 22.7524 29.8105C22.8083 29.7965 22.906 29.8105 23.1154 29.8942C23.1294 29.8942 23.1573 29.8942 23.1712 29.8942C23.1852 29.8942 23.2131 29.8803 23.2271 29.8524L23.241 29.8384C23.241 29.8384 23.255 29.8384 23.269 29.8384C23.2829 29.8384 23.2829 29.8384 23.2829 29.8244C23.2969 29.8105 23.3248 29.7686 23.3388 29.7546C23.3527 29.7407 23.3388 29.7128 23.3248 29.7128C23.3108 29.7128 23.3108 29.6988 23.2969 29.6988C23.2969 29.6848 23.2829 29.6848 23.269 29.6709C22.8083 29.4615 22.3197 29.2521 21.859 29.0566C21.8171 29.0427 21.7752 29.0566 21.7473 29.0985L21.6915 29.1683C21.6915 29.1823 21.6915 29.2102 21.6915 29.2242C21.6915 29.2381 21.7054 29.266 21.7333 29.266C21.8171 29.3079 21.8869 29.3358 21.9427 29.3777C21.9986 29.4196 22.0125 29.4475 22.0265 29.4615C22.0265 29.4754 22.0265 29.5173 22.0125 29.5871C21.9986 29.643 21.9567 29.7128 21.9009 29.7965C21.6775 30.1455 21.4402 30.5364 21.2168 30.8994C21.0772 30.8296 20.9935 30.7737 20.9237 30.7039C20.9097 30.69 20.8957 30.676 20.8818 30.662C20.8539 30.6062 20.8259 30.5643 20.812 30.5224C20.798 30.4387 20.812 30.341 20.8539 30.2572C20.8957 30.1455 20.9376 30.0618 20.9935 29.964C21.0633 29.8384 21.147 29.7128 21.2168 29.6011C21.3564 29.3777 21.4262 29.1823 21.3704 29.0427C21.3564 29.0148 21.3425 29.0008 21.3285 28.9729C21.2447 28.8472 21.1051 28.7355 20.8539 28.6518C20.7841 28.6378 20.7003 28.6099 20.6305 28.5959C20.5886 28.5959 20.5607 28.5959 20.5467 28.6378L20.4909 28.7216C20.4769 28.7355 20.4769 28.7774 20.4909 28.7914C20.4909 28.8054 20.5328 28.8333 20.5467 28.8333C20.5886 28.8333 20.6305 28.8472 20.6863 28.8751C20.7422 28.8891 20.7561 28.931 20.7561 28.945C20.7561 28.9589 20.7561 29.0008 20.7422 29.0566C20.7282 29.1125 20.6863 29.1823 20.6305 29.2521C20.5049 29.4475 20.4071 29.643 20.2815 29.8244C20.1698 30.0059 20.1419 30.1595 20.1558 30.2991C20.1698 30.4387 20.2257 30.5643 20.3373 30.69C20.5188 30.8994 20.7561 31.0529 21.0353 31.1786C20.9795 31.2623 20.9516 31.3321 20.8957 31.4299C20.8399 31.5136 20.7841 31.5695 20.7561 31.6253C20.7143 31.6811 20.6863 31.6951 20.6445 31.7091C20.6026 31.7091 20.5607 31.7091 20.5049 31.7091C20.449 31.6951 20.3653 31.6672 20.2815 31.6393C20.2257 31.6253 20.1977 31.6393 20.1698 31.6811L20.1279 31.7509C20.1279 31.7649 20.1279 31.7928 20.1279 31.8068C20.1279 31.8207 20.1419 31.8487 20.1698 31.8487C20.6445 32.0301 21.0912 32.2116 21.5519 32.4071C21.5658 32.4071 21.5658 32.4071 21.5937 32.4071C21.6356 32.4071 21.6635 32.3931 21.7054 32.3652L21.7613 32.2954C21.7613 32.2814 21.7613 32.2535 21.7613 32.2395C21.7613 32.2256 21.7473 32.1977 21.7194 32.1977C21.51 32.1279 21.4541 32.0581 21.4402 32.0022C21.4262 31.9883 21.4262 31.9464 21.4402 31.8905C21.4541 31.8347 21.496 31.7649 21.5519 31.6811C21.5937 31.5974 21.6356 31.5276 21.6915 31.4299C21.9707 31.5555 22.2638 31.6113 22.5849 31.6113C22.7664 31.6113 22.92 31.5695 23.0596 31.4997C23.2131 31.4299 23.3388 31.3042 23.4504 31.1506C23.5761 30.9692 23.7017 30.7877 23.8134 30.6062C23.8692 30.5364 23.9251 30.4806 23.967 30.4247C23.967 30.3549 23.9809 30.341 23.9949 30.341Z" fill="#020303"/>
<path d="M29.5505 34.1661C29.5645 34.1522 29.5784 34.1522 29.5784 34.1522H29.5924C29.6064 34.1522 29.6064 34.1522 29.6064 34.1382C29.732 33.9847 29.8716 33.8171 29.9972 33.6636C30.0112 33.6496 29.9972 33.6217 29.9972 33.6217V33.6077C29.9972 33.5938 29.9833 33.5658 29.9554 33.5519C29.3132 33.0912 28.6291 32.6584 27.9451 32.2396C27.9032 32.2257 27.8613 32.2257 27.8334 32.2536L27.7776 32.3234C27.7636 32.3374 27.7636 32.3653 27.7636 32.3792C27.7636 32.3932 27.7776 32.4211 27.8055 32.4351C27.8613 32.4909 27.9172 32.5188 27.9451 32.5607C27.987 32.6026 28.0009 32.6166 28.0009 32.6305C28.0009 32.6305 28.0009 32.6724 27.987 32.7003C27.973 32.7422 27.9311 32.7841 27.9032 32.8399C27.5123 33.3285 27.1354 33.859 26.7724 34.3616C26.7166 34.4314 26.6887 34.4733 26.6468 34.5012C26.6049 34.5431 26.577 34.5431 26.577 34.5431C26.577 34.5431 26.5351 34.5431 26.4932 34.5291C26.4374 34.5151 26.3816 34.4872 26.3118 34.4593C26.2699 34.4453 26.242 34.4453 26.228 34.4733L26.1722 34.5431C26.1582 34.557 26.1582 34.5849 26.1582 34.5989C26.1582 34.6129 26.1722 34.6408 26.2001 34.6547C26.8702 35.0456 27.5263 35.4644 28.1685 35.8972C28.1685 35.9111 28.1824 35.9112 28.2103 35.9112C28.2243 35.9112 28.2383 35.9112 28.2522 35.8693C28.4337 35.7157 28.6152 35.5901 28.8106 35.4365L28.8246 35.4225L28.8385 35.4086C28.8525 35.3946 28.8804 35.3667 28.8804 35.3527C28.8804 35.3388 28.8665 35.3109 28.8385 35.2969L28.7269 35.2271C28.7129 35.2131 28.671 35.2131 28.6571 35.2271C28.4337 35.3527 28.2522 35.3807 28.1126 35.3667C27.973 35.3527 27.7776 35.255 27.5403 35.1015C27.4286 35.0317 27.3448 34.9758 27.275 34.92C27.1913 34.8641 27.1494 34.8502 27.1494 34.8362V34.8223C27.1494 34.8223 27.1633 34.8083 27.1913 34.7664C27.3867 34.5012 27.5961 34.2499 27.7776 33.9847C27.8474 34.0265 27.9172 34.0684 27.987 34.1243C28.0847 34.1941 28.1824 34.2639 28.2941 34.3197C28.3639 34.3755 28.4197 34.4314 28.4477 34.4593C28.4895 34.5012 28.5035 34.5291 28.5035 34.5291C28.5035 34.5431 28.5035 34.5849 28.4895 34.6408C28.4756 34.6827 28.4477 34.7525 28.4197 34.8223C28.4058 34.8641 28.4058 34.8921 28.4337 34.906C28.4337 34.92 28.4337 34.92 28.4477 34.92C28.4895 34.9339 28.5035 34.9619 28.5314 34.9758C28.5454 34.9898 28.5733 34.9758 28.5873 34.9758C28.5873 34.9758 28.5873 34.9619 28.6012 34.9619C28.6152 34.9619 28.6152 34.9479 28.6291 34.9339C28.8246 34.6687 29.034 34.4314 29.2434 34.1661C29.2574 34.1522 29.2574 34.1243 29.2574 34.1103C29.2574 34.0963 29.2434 34.0684 29.2155 34.0545L29.1317 33.9986C29.1178 33.9847 29.0619 33.9847 29.0479 33.9986C28.9921 34.0545 28.9363 34.0824 28.8944 34.1243C28.8525 34.1661 28.8246 34.1801 28.7827 34.1801C28.7687 34.1801 28.7269 34.1801 28.671 34.1661C28.6152 34.1522 28.5454 34.1103 28.4756 34.0545C28.322 33.9288 28.1545 33.8311 27.987 33.7334C28.1545 33.51 28.322 33.3006 28.5035 33.0772C28.5175 33.0633 28.5454 33.0354 28.5593 33.0214C28.5733 33.0074 28.5733 33.0074 28.5873 33.0074C28.6012 33.0074 28.6152 33.0214 28.6291 33.0214C28.8106 33.1331 28.9642 33.2448 29.1317 33.3564C29.2434 33.4262 29.3272 33.496 29.383 33.5519C29.4528 33.6217 29.4668 33.6636 29.4668 33.6775C29.4807 33.7194 29.4807 33.7473 29.4668 33.8032C29.4528 33.873 29.4109 33.9428 29.383 34.0126C29.369 34.0545 29.369 34.0824 29.397 34.0963L29.4807 34.1661C29.5226 34.1661 29.5366 34.1661 29.5505 34.1661ZM28.9642 34.1941C28.9642 34.208 28.9642 34.208 28.9642 34.1941C28.9502 34.208 28.9642 34.208 28.9642 34.1941C28.9642 34.1941 28.9642 34.208 28.9642 34.1941Z" fill="#020303"/>
<path d="M33.4174 36.1901C33.3755 36.1343 33.3336 36.0784 33.2778 36.0365C33.0963 35.8551 32.9288 35.7853 32.7752 35.7853C32.6217 35.7853 32.4402 35.8969 32.2448 36.1063C32.1331 36.218 32.0493 36.3018 31.9655 36.3995C31.8957 36.4833 31.812 36.5531 31.7422 36.6229C31.6863 36.6927 31.6026 36.7346 31.5328 36.7485C31.463 36.7625 31.3792 36.7625 31.2815 36.7346C31.2117 36.7066 31.1279 36.6508 31.0302 36.5949C31.2955 36.3018 31.5607 35.9807 31.8259 35.6875C31.8957 35.6177 31.9516 35.5619 32.0074 35.534C32.0633 35.4921 32.1191 35.4781 32.147 35.4781C32.2168 35.4781 32.2866 35.5061 32.3844 35.5759C32.3983 35.5898 32.4123 35.5898 32.4262 35.6038C32.4402 35.6177 32.4402 35.6177 32.4542 35.6177C32.4681 35.6177 32.4681 35.6317 32.4821 35.6317H32.496C32.496 35.6317 32.51 35.6317 32.51 35.6177L32.524 35.6038L32.5798 35.5479C32.5938 35.534 32.5938 35.5061 32.5938 35.4921C32.5938 35.4781 32.5938 35.4502 32.5798 35.4363C32.2308 35.1431 31.8399 34.836 31.4769 34.5568C31.4351 34.5149 31.3932 34.5149 31.3653 34.5568L31.3094 34.6266C31.2955 34.6405 31.2955 34.6685 31.2955 34.6824C31.3094 34.6964 31.3094 34.7243 31.3373 34.7383C31.4071 34.7941 31.463 34.822 31.4909 34.8779C31.5328 34.9337 31.5467 34.9616 31.5467 34.9895C31.5467 35.0035 31.5467 35.0454 31.5049 35.1012C31.463 35.1571 31.4351 35.2269 31.3653 35.2967C31.1 35.6177 30.8208 35.9249 30.5556 36.2459C30.4439 36.1761 30.3741 36.0924 30.3462 36.0226C30.2903 35.9388 30.2764 35.869 30.2764 35.7992C30.2764 35.7713 30.2764 35.7294 30.2903 35.6875C30.3043 35.6596 30.3183 35.6177 30.3462 35.5898C30.402 35.5061 30.4579 35.4083 30.5416 35.3246C30.6254 35.2129 30.7231 35.1152 30.8069 35.0035C30.9744 34.822 31.0581 34.6545 31.0581 34.5149C31.0581 34.487 31.0581 34.473 31.0581 34.4451C31.0163 34.2915 30.9185 34.124 30.7091 33.9844C30.6393 33.9425 30.5835 33.9146 30.5137 33.8727C30.4718 33.8588 30.4439 33.8727 30.4299 33.8867L30.3601 33.9565C30.3462 33.9704 30.3462 34.0123 30.3462 34.0263C30.3601 34.0682 30.3881 34.0821 30.402 34.0821C30.4439 34.0821 30.4718 34.0961 30.5137 34.138C30.5695 34.1798 30.5695 34.2078 30.5695 34.2217C30.5695 34.2217 30.5695 34.2636 30.5277 34.3055C30.5137 34.3613 30.4579 34.4172 30.402 34.487C30.2624 34.6405 30.1228 34.822 29.9832 34.9756C29.8576 35.1152 29.8017 35.2687 29.7878 35.4083C29.7738 35.5479 29.8017 35.6875 29.8576 35.8271C29.9832 36.0505 30.1368 36.2599 30.3601 36.4414C30.2903 36.5112 30.2345 36.581 30.1787 36.6508C30.1228 36.7206 30.067 36.7764 30.0251 36.8044C29.9693 36.8462 29.9413 36.8602 29.9134 36.8602C29.8715 36.8602 29.8436 36.8602 29.7878 36.8462C29.7319 36.8323 29.6761 36.7904 29.6063 36.7346C29.5644 36.7206 29.5225 36.7206 29.4946 36.7485L29.4388 36.8183C29.4248 36.8323 29.4248 36.8602 29.4248 36.8742C29.4388 36.8881 29.4388 36.916 29.4667 36.93C29.8297 37.1952 30.1787 37.4744 30.5277 37.7536C30.5416 37.7676 30.5695 37.7676 30.5835 37.7676C30.6254 37.7676 30.6393 37.7536 30.6254 37.6978L30.6393 37.6838L30.6673 37.642C30.6812 37.628 30.6812 37.6001 30.6812 37.5861C30.6812 37.5722 30.6812 37.5442 30.6673 37.5303C30.5137 37.4046 30.4718 37.3348 30.4718 37.279C30.4718 37.265 30.4858 37.2232 30.5137 37.1673C30.5277 37.1115 30.5835 37.0556 30.6393 36.9858C30.6952 36.916 30.765 36.8462 30.8208 36.7764C31.0442 36.9579 31.2955 37.0556 31.5607 37.1254C31.7143 37.1394 31.8539 37.1394 31.9935 37.1115C32.1331 37.0696 32.2727 36.9858 32.3983 36.8462C32.5379 36.7066 32.6775 36.5531 32.8171 36.3855C32.873 36.3297 32.9288 36.2739 32.9707 36.2459C32.9986 36.218 33.0405 36.1901 33.0684 36.1901C33.0963 36.1901 33.1242 36.2041 33.1382 36.218C33.1801 36.2599 33.194 36.2739 33.208 36.3018C33.222 36.3157 33.2499 36.3437 33.2638 36.3437H33.2778C33.2778 36.3576 33.2918 36.3576 33.2918 36.3576C33.3057 36.3576 33.3057 36.3576 33.3336 36.3437C33.3476 36.3297 33.3895 36.2878 33.4034 36.2739C33.4174 36.2599 33.4174 36.2599 33.4034 36.2459C33.4314 36.2459 33.4314 36.218 33.4174 36.1901Z" fill="#020303"/>
<path d="M24.3857 31.6672C24.3857 31.709 24.3997 31.709 24.4276 31.723C25.1117 32.0581 25.7957 32.421 26.4518 32.8119C26.4518 32.8259 26.4658 32.8259 26.4937 32.8259C26.5356 32.8259 26.5496 32.8119 26.5775 32.8119C26.6333 32.7281 26.7031 32.6583 26.759 32.5606C26.7729 32.5467 26.7729 32.5187 26.7729 32.5048C26.7729 32.4908 26.759 32.4629 26.731 32.4489C26.061 32.058 25.363 31.6951 24.6929 31.3461C24.651 31.3321 24.6091 31.3321 24.5812 31.36C24.5114 31.4438 24.4555 31.5136 24.3997 31.6113C24.3857 31.6392 24.3857 31.6532 24.3857 31.6672Z" fill="#020303"/>
<path d="M26.2291 33.203C26.2291 33.189 26.2151 33.1611 26.1872 33.1471C25.5171 32.7562 24.847 32.3933 24.163 32.0582C24.1211 32.0443 24.0792 32.0443 24.0513 32.0722C23.9955 32.156 23.9396 32.2258 23.8977 32.3235C23.8838 32.3374 23.8838 32.3654 23.8838 32.3793C23.8838 32.4212 23.8977 32.4212 23.9257 32.4352C24.6097 32.7702 25.2938 33.1332 25.9359 33.4961C25.9499 33.5101 25.9499 33.5101 25.9778 33.5101C26.0197 33.5101 26.0336 33.5101 26.0476 33.4961C26.1174 33.4124 26.1732 33.3426 26.2291 33.2449C26.2291 33.2449 26.2291 33.2309 26.2291 33.203Z" fill="#020303"/>
<path d="M48.1182 30.8994C48.3136 30.7877 48.3834 30.7598 48.3974 30.7598C48.4113 30.7598 48.4393 30.7459 48.4672 30.8017C48.4672 30.8157 48.4811 30.8157 48.4811 30.8436C48.4951 30.8575 48.4951 30.8855 48.4951 30.8855C48.8441 31.8766 49.1792 32.9097 49.4863 33.9288L49.5282 34.0404L49.584 33.9706C49.7096 33.9008 49.8492 33.831 49.9749 33.7612L50.0447 33.7194L50.0307 33.6496C49.947 33.3704 49.8353 33.0772 49.7515 32.7701C49.7934 32.7142 49.8074 32.6584 49.8353 32.6165C49.947 32.7003 50.0447 32.7701 50.1564 32.8259C50.282 32.8957 50.3797 32.9516 50.4774 33.0074C50.7008 33.147 50.8404 33.2168 50.9521 33.2308C51.0638 33.2447 51.1615 33.2447 51.2452 33.1889C51.3709 33.1191 51.4686 33.0074 51.5105 32.8678C51.5524 32.7422 51.5803 32.5746 51.5803 32.3234V32.2396L51.3011 32.2256V32.3094C51.2871 32.463 51.2871 32.5607 51.2592 32.5886C51.2592 32.6444 51.2452 32.7003 51.2034 32.7142C51.1894 32.7142 51.1336 32.7282 51.0079 32.6584C50.9242 32.6026 50.7566 32.5188 50.5193 32.3652C50.3797 32.2815 50.2401 32.1837 50.0586 32.086C50.2541 31.6114 50.4216 31.2624 50.4914 31.1367C50.5472 31.0251 50.631 30.9413 50.7566 30.8715L50.8404 30.8157L50.7008 30.6063L50.631 30.6481C50.296 30.8017 49.947 30.9832 49.6119 31.1507L49.5282 31.2065L49.6817 31.4159L49.7515 31.3741C49.933 31.3043 49.9749 31.2624 50.0168 31.2624C50.0168 31.2624 50.0307 31.3182 49.947 31.5276C49.8772 31.6672 49.7655 31.9185 49.598 32.2815C49.3746 31.5695 49.1373 30.8436 48.8999 30.1316V30.1177L48.8162 30.0479L48.7603 30.0897C48.7464 30.1037 48.7185 30.1037 48.5789 30.2293L48.4253 30.355C48.3834 30.3969 48.3136 30.4248 48.2299 30.4946L47.8809 30.7459L48.0344 30.9553L48.1182 30.8994Z" fill="#020303"/>
<path d="M43.0918 36.4276C42.9522 36.3718 42.8126 36.3439 42.673 36.316C42.4217 36.302 42.1704 36.2741 41.9192 36.2601C41.6958 36.2462 41.5562 36.2182 41.4585 36.2043C41.3747 36.1903 41.3049 36.1345 41.2351 36.0647C41.1653 35.9809 41.1234 35.8832 41.1514 35.7715C41.1653 35.6459 41.263 35.5202 41.3747 35.4225C41.5841 35.241 41.7935 35.1992 41.989 35.269C42.1006 35.3108 42.2542 35.4086 42.4078 35.59L42.4636 35.6459L42.687 35.5202L42.6451 35.4504C42.4636 35.1294 42.2961 34.8362 42.1146 34.5291L42.0588 34.4453L41.8354 34.6268V34.6826C41.8494 34.7245 41.8354 34.7524 41.8354 34.7943C41.8354 34.8362 41.8214 34.8641 41.7796 34.8781C41.7656 34.8781 41.7237 34.92 41.5143 35.0037C41.3608 35.0735 41.1932 35.1573 41.0816 35.269C40.7884 35.5202 40.6488 35.7576 40.6209 36.0368C40.6069 36.302 40.6767 36.5254 40.8442 36.7069C40.9559 36.8185 41.0955 36.9023 41.2491 36.9302C41.3887 36.9721 41.64 37 42.0727 37.0419C42.2263 37.0419 42.4078 37.0559 42.5753 37.0838C42.687 37.0977 42.7847 37.1396 42.8685 37.1955C42.9243 37.2373 42.9801 37.2792 43.0081 37.3211C43.1197 37.4467 43.1477 37.5724 43.1477 37.7399C43.1477 37.8935 43.0639 38.0331 42.8964 38.1727C42.7428 38.3123 42.5613 38.3681 42.3519 38.3541C42.1565 38.3402 41.961 38.2285 41.8075 38.061C41.7935 38.061 41.7656 38.047 41.7516 38.0051L41.6818 37.9214L41.4585 38.0749L41.5143 38.1447C41.7237 38.4658 41.9331 38.7869 42.1425 39.122L42.2123 39.1918L42.3659 38.9963L42.3519 38.9405C42.338 38.8846 42.338 38.8567 42.338 38.8288C42.338 38.8148 42.3519 38.7869 42.3938 38.759C42.4078 38.759 42.4497 38.7171 42.687 38.6333C42.8824 38.5635 43.0499 38.4798 43.1895 38.3541C43.4687 38.1308 43.6223 37.8516 43.6642 37.5445C43.7061 37.2234 43.6083 36.9721 43.4129 36.7348C43.3571 36.5673 43.2314 36.4695 43.0918 36.4276Z" fill="#020303"/>
<path d="M50.9386 29.9781C50.9805 29.9362 51.0084 29.9222 51.0224 29.9083C51.0642 29.8943 51.0782 29.8943 51.0922 29.8664C51.2038 29.8105 51.2457 29.8524 51.2736 29.8524C51.2876 29.8524 51.3295 29.8943 51.3993 29.992C51.8321 30.6342 52.2509 31.3043 52.6557 31.9604C52.7115 32.0302 52.7255 32.1 52.7115 32.1419C52.6976 32.1559 52.6557 32.2257 52.4882 32.3234L52.4184 32.3792L52.544 32.5747L52.6278 32.5328C53.0187 32.3513 53.4095 32.1838 53.8144 32.0023L53.8982 31.9604L53.7725 31.751L53.7027 31.765C53.5073 31.8348 53.4375 31.8348 53.4095 31.8348C53.3677 31.8348 53.3258 31.7929 53.256 31.6812C52.7674 30.8715 52.2369 30.0618 51.7064 29.2521C51.6645 29.1963 51.6506 29.1823 51.6506 29.1823C51.6087 29.1405 51.5808 29.1405 51.5249 29.1684L51.511 29.1823C51.2318 29.4057 51.0084 29.6011 50.813 29.7547L50.7432 29.8106L50.8828 30.02L50.9386 29.9781Z" fill="#020303"/>
<path d="M53.0178 30.2153C53.0178 30.2153 53.0317 30.2013 53.0597 30.2013C53.1434 30.1594 53.1993 30.1594 53.2411 30.1873C53.2551 30.1873 53.3109 30.2292 53.3668 30.3269C53.5762 30.6759 53.7856 31.0249 53.995 31.374C54.0787 31.5136 54.0648 31.5694 54.0648 31.5694C54.0508 31.5834 54.0089 31.6392 53.8833 31.709L53.8135 31.7509L53.9391 31.9603L54.0508 31.9463C54.4138 31.8067 54.7907 31.6532 55.1537 31.5136L55.2374 31.4717L55.1118 31.2623L55.042 31.2762C54.9303 31.3181 54.8465 31.3321 54.7907 31.3181C54.7349 31.3181 54.679 31.2623 54.6511 31.1925C54.4277 30.8295 54.2183 30.4386 53.981 30.0757C54.0229 29.9919 54.0508 29.9221 54.0927 29.8802C54.1625 29.7965 54.2323 29.7406 54.3161 29.6987C54.4557 29.6569 54.5394 29.6429 54.6371 29.6987C54.7209 29.7546 54.7907 29.8244 54.8605 29.9221C55.042 30.2153 55.1956 30.5224 55.3631 30.8155C55.4468 30.997 55.4329 31.0389 55.4329 31.0389C55.4329 31.0529 55.377 31.1087 55.2514 31.1785L55.1676 31.2204L55.2793 31.4298L55.3491 31.3879C55.7121 31.2483 56.089 31.1087 56.452 30.9831L56.5357 30.9412L56.4101 30.7318L56.3403 30.7457C56.2565 30.7876 56.1588 30.7876 56.1169 30.7597C56.0611 30.7457 56.0332 30.6899 55.9773 30.6061C55.7819 30.2711 55.6144 29.9361 55.4189 29.6289C55.2374 29.3358 55.0141 29.1543 54.7349 29.1264C54.5953 29.1124 54.4557 29.1264 54.3161 29.1822C54.1625 29.252 54.0229 29.3358 53.9112 29.4754C53.8554 29.5312 53.7856 29.615 53.7297 29.7406C53.6879 29.6708 53.6599 29.615 53.6181 29.5591C53.6041 29.5452 53.5762 29.5173 53.5762 29.5173C53.5343 29.4754 53.5064 29.4754 53.4505 29.5033L53.4366 29.5173C53.3668 29.5731 53.297 29.6289 53.2272 29.6708L53.0457 29.8104C52.92 29.8942 52.8363 29.964 52.7944 30.0059L52.7246 30.0617L52.8642 30.2711L53.0178 30.2153Z" fill="#020303"/>
<path d="M56.1033 28.8193C56.2848 29.1404 56.5919 29.3637 56.9968 29.4894C57.3597 29.615 57.7646 29.6429 58.1973 29.5592C58.2113 29.615 58.2532 29.6429 58.2671 29.6988C58.0019 29.7825 57.7367 29.8523 57.4993 29.9501C57.3458 30.0059 57.2341 29.9919 57.1782 29.9501C57.1364 29.9361 57.1224 29.8942 57.0945 29.8663C57.0526 29.8244 57.0386 29.7965 57.0247 29.7825L56.9828 29.7267L56.7176 29.8105L56.7734 29.8942C56.913 30.1455 57.0526 30.3828 57.1782 30.6481L57.2201 30.7179L57.276 30.7039C57.7785 30.5224 58.309 30.3689 58.8255 30.2153L58.9372 30.1734L58.8814 30.0897C58.7418 29.8105 58.6022 29.5313 58.4626 29.2521L58.4207 29.1962H58.3649C57.96 29.2381 57.6529 29.1823 57.4156 29.0427C57.1922 28.8891 57.0107 28.7076 56.913 28.5122C56.7036 28.1632 56.6896 27.884 56.8292 27.6606C56.9688 27.4372 57.2201 27.2558 57.5691 27.158C57.9321 27.0324 58.2671 27.0324 58.6022 27.1162C58.9233 27.1999 59.1745 27.4372 59.37 27.8002C59.4817 27.9956 59.5096 28.205 59.4817 28.4284C59.4258 28.6378 59.2583 28.8472 58.9233 29.0008L58.8535 29.0427L58.8953 29.1125C59.0349 29.3917 59.1745 29.6709 59.3141 29.9501L59.356 30.0199L59.4258 30.0059C59.9563 29.8663 60.4868 29.7267 61.0312 29.5871L61.1429 29.5731L61.101 29.4894C60.9754 29.2241 60.8498 28.9589 60.7381 28.7076L60.6962 28.6378L60.403 28.7076L60.4589 28.8193C60.4728 28.8612 60.4728 28.8891 60.5008 28.9031C60.5008 28.9449 60.5008 28.9729 60.5008 29.0147C60.4868 29.0706 60.417 29.1264 60.2774 29.1543C59.9982 29.2381 59.7329 29.3079 59.4537 29.3777C59.4398 29.3219 59.3979 29.2939 59.3839 29.2381C59.7748 29.0566 60.068 28.8333 60.2216 28.5541C60.417 28.233 60.431 27.9119 60.2774 27.5768C60.1936 27.4372 60.082 27.2837 59.9284 27.1441C59.7748 27.0045 59.5794 26.8928 59.356 26.809C59.1327 26.7253 58.8535 26.6694 58.5324 26.6694C58.2113 26.6694 57.8483 26.7253 57.4714 26.8509C57.0805 26.9766 56.7874 27.1162 56.564 27.2837C56.3546 27.4652 56.201 27.6327 56.1033 27.8281C56.0196 28.0096 55.9777 28.1911 55.9916 28.3726C55.9637 28.5122 56.0196 28.6797 56.1033 28.8193Z" fill="#020303"/>
<path d="M47.7688 34.3615L47.713 34.2917C47.6432 34.18 47.5734 34.0962 47.5036 33.9985L47.4477 33.9287L47.3779 33.9706C46.5264 34.5011 45.7027 35.0316 44.893 35.59L44.8232 35.6458L44.8791 35.7156C44.9628 35.7994 45.0326 35.911 45.1024 35.9948L45.1583 36.0646L45.2281 36.0227C46.0099 35.4643 46.8335 34.9199 47.6711 34.4173L47.7688 34.3615Z" fill="#020303"/>
<path d="M47.1405 33.5099L47.0847 33.4401C47.0009 33.3284 46.9311 33.2447 46.8613 33.1469L46.8055 33.0771L46.7357 33.119C45.8841 33.6495 45.0465 34.2079 44.2368 34.7803L44.167 34.8361L44.2228 34.9059C44.2926 34.9897 44.3764 35.1014 44.4462 35.1851L44.502 35.2549L44.5718 35.213C45.3815 34.6407 46.2191 34.0962 47.0567 33.5658L47.1405 33.5099Z" fill="#020303"/>
</svg>
