<svg width="238" height="50" viewBox="0 0 238 50" fill="none" xmlns="http://www.w3.org/2000/svg">
<path d="M3.1032 8.00806C2.18276 8.00806 1.42011 8.29734 0.867844 8.8759C0.289281 9.45446 0 10.1908 0 11.1113C0 12.0054 0.289281 12.7418 0.867844 13.3729C1.47271 13.9515 2.20906 14.2408 3.1032 14.2408C3.99735 14.2408 4.7337 13.9515 5.31226 13.3729C5.91713 12.7681 6.23271 12.0054 6.23271 11.1113C6.23271 10.1908 5.94342 9.45446 5.36486 8.8759C4.7863 8.29734 4.02364 8.00806 3.1032 8.00806Z" fill="black"/>
<path d="M32.9255 14.9247C33.7934 14.0831 34.9505 13.6623 36.3443 13.6623C37.7381 13.6623 38.8427 14.0831 39.7105 14.9247C40.5783 15.7662 41.0254 16.897 41.0254 18.2909C41.0254 18.5801 41.1569 18.7379 41.4199 18.7379H41.4988L46.1273 18.4486C46.4429 18.396 46.6007 18.2383 46.6007 18.0279C46.6007 16.2133 46.1536 14.6091 45.2857 13.2416C44.4442 11.8478 43.2345 10.7958 41.6829 10.0595C40.1576 9.29682 38.3956 8.90234 36.3706 8.90234C34.3193 8.90234 32.5311 9.29682 30.9795 10.0858C29.4278 10.8747 28.2181 11.9793 27.3766 13.452C26.535 14.8984 26.1143 16.5815 26.1143 18.4486V27.5742C26.1143 29.4676 26.535 31.1244 27.3766 32.5709C28.2181 34.0173 29.4278 35.1481 30.9795 35.9633C32.5311 36.7523 34.3456 37.1468 36.3706 37.1468C38.3956 37.1468 40.1839 36.7523 41.6829 35.9896C43.2345 35.227 44.4442 34.1488 45.2857 32.7549C46.1536 31.3611 46.6007 29.7569 46.6007 27.9423C46.6007 27.8371 46.5481 27.732 46.4429 27.6794C46.364 27.6005 46.2588 27.5479 46.1273 27.5479L41.4988 27.3375C41.1832 27.3375 41.0254 27.469 41.0254 27.7846C41.0254 29.1521 40.6046 30.2566 39.7105 31.0981C38.869 31.9397 37.7381 32.3605 36.3443 32.3605C34.9242 32.3605 33.7671 31.9397 32.9255 31.0981C32.084 30.2566 31.6632 29.1521 31.6632 27.7846V18.2646C31.6632 16.8707 32.084 15.7662 32.9255 14.9247Z" fill="black"/>
<path d="M22.9329 22.9193C22.8541 22.8141 22.7489 22.7615 22.6174 22.7615H9.73118C9.59969 22.7615 9.4682 22.8141 9.363 22.9193C9.28411 22.9982 9.25781 23.1034 9.25781 23.2348V27.0481C9.25781 27.1796 9.28411 27.3111 9.363 27.39C9.4682 27.4689 9.59969 27.5215 9.73118 27.5215H22.6174C22.7489 27.5215 22.8541 27.4689 22.9329 27.39C23.0381 27.2848 23.0907 27.1796 23.0907 27.0481V23.2348C23.0907 23.1034 23.0381 22.9982 22.9329 22.9193Z" fill="black"/>
<path d="M64.7722 17.8702C63.2469 16.7656 61.406 16.2134 59.2496 16.2134C57.0405 16.2134 55.147 16.7656 53.5691 17.8702C51.9912 18.9747 50.913 20.5 50.3081 22.4461C49.9399 23.6821 49.7559 25.0759 49.7559 26.6275C49.7559 28.0739 49.9399 29.4151 50.3081 30.6512C50.8867 32.6498 51.9649 34.2277 53.5428 35.3849C55.1207 36.542 57.0142 37.1206 59.2233 37.1206C61.4323 37.1206 63.2995 36.542 64.8774 35.3849C66.4553 34.2014 67.5335 32.5972 68.1121 30.546C68.4803 29.31 68.6644 27.9687 68.6644 26.5486C68.6644 25.1022 68.454 23.7084 68.0332 22.3935C67.3757 20.4737 66.2975 18.9484 64.7722 17.8702ZM62.7209 29.3888C62.458 30.3093 62.0109 31.0193 61.406 31.5453C60.8012 32.0713 60.0648 32.3343 59.197 32.3343C58.3028 32.3343 57.5402 32.0713 56.909 31.5453C56.3041 31.0193 55.8834 30.283 55.6204 29.3888C55.4363 28.7314 55.3311 27.8109 55.3311 26.6275C55.3311 25.3915 55.4363 24.4711 55.6467 23.8399C55.9097 22.9458 56.3304 22.2357 56.909 21.736C57.5139 21.2364 58.2765 20.9734 59.1707 20.9734C60.0385 20.9734 60.7749 21.2364 61.3797 21.736C61.9846 22.2357 62.4317 22.9195 62.7209 23.8399C62.9313 24.6025 63.0365 25.523 63.0365 26.6275C63.0365 27.6269 62.9313 28.5473 62.7209 29.3888Z" fill="black"/>
<path d="M5.68022 16.6602C5.60133 16.555 5.49613 16.5024 5.36464 16.5024H0.762433C0.630942 16.5024 0.49945 16.555 0.394256 16.6602C0.315361 16.7391 0.289062 16.8443 0.289062 16.9758V36.3577C0.289062 36.4892 0.315361 36.6207 0.394256 36.6996C0.49945 36.7785 0.630942 36.8311 0.762433 36.8311H5.36464C5.49613 36.8311 5.60133 36.7785 5.68022 36.6996C5.78542 36.5944 5.83801 36.4892 5.83801 36.3577V16.9758C5.81171 16.8443 5.75912 16.7391 5.68022 16.6602Z" fill="black"/>
<path d="M170.755 22.7353C169.703 22.2093 168.23 21.6044 166.363 20.9207C164.68 20.3158 163.418 19.8425 162.629 19.5006C161.84 19.1324 161.235 18.7116 160.814 18.2646C160.42 17.8175 160.236 17.2652 160.236 16.6078C160.236 15.6873 160.578 14.9773 161.261 14.4513C161.971 13.9253 162.944 13.6623 164.18 13.6623C165.758 13.6623 166.994 14.0568 167.889 14.8458C168.809 15.6084 169.256 16.5552 169.256 17.6334V17.949C169.256 18.0805 169.282 18.212 169.388 18.3171C169.493 18.396 169.598 18.4223 169.729 18.4223H174.253C174.384 18.4223 174.489 18.396 174.568 18.3171C174.673 18.212 174.726 18.0805 174.726 17.949V17.3704C174.726 15.6873 174.279 14.2146 173.385 12.9523C172.517 11.6637 171.281 10.6643 169.703 9.95428C168.151 9.24422 166.363 8.90234 164.391 8.90234C162.497 8.90234 160.841 9.21793 159.394 9.84909C157.948 10.4802 156.817 11.3744 156.002 12.5578C155.186 13.7412 154.792 15.135 154.792 16.7129C154.792 18.3171 155.186 19.6584 156.002 20.7892C156.843 21.8674 157.869 22.709 159.079 23.3664C160.315 23.9976 161.814 24.6287 163.576 25.2073C165.153 25.7859 166.311 26.2592 167.021 26.5748C167.757 26.8904 168.336 27.2849 168.756 27.7057C169.177 28.1264 169.388 28.6524 169.388 29.2836C169.388 30.1514 169.046 30.8878 168.362 31.4926C167.678 32.0712 166.652 32.3605 165.259 32.3605C163.602 32.3605 162.287 32.0186 161.314 31.3085C160.341 30.5722 159.841 29.678 159.841 28.6261V28.0475C159.841 27.916 159.789 27.8109 159.683 27.732C159.605 27.6268 159.499 27.5742 159.368 27.5742H154.871C154.739 27.5742 154.608 27.6268 154.503 27.732C154.424 27.8109 154.397 27.916 154.397 28.0475V28.9154C154.397 30.5722 154.818 32.0449 155.66 33.3072C156.528 34.5432 157.764 35.49 159.342 36.2C160.919 36.8575 162.76 37.1994 164.864 37.1994C167.967 37.1994 170.413 36.4893 172.228 35.0692C174.042 33.6228 174.936 31.6767 174.936 29.2047C174.936 27.5479 174.516 26.2066 173.622 25.181C172.78 24.0502 171.833 23.2612 170.755 22.7353Z" fill="black"/>
<path d="M184.587 13.9779H197.526C197.658 13.9779 197.763 13.9254 197.842 13.8465C197.947 13.7413 198 13.6098 198 13.4783V9.66502C198 9.53353 197.947 9.42833 197.842 9.34944C197.763 9.24424 197.658 9.19165 197.526 9.19165H179.301C179.17 9.19165 179.039 9.24424 178.96 9.34944C178.881 9.42833 178.828 9.53353 178.828 9.66502V36.3315C178.828 36.463 178.854 36.5945 178.96 36.6734C179.065 36.7523 179.17 36.8049 179.301 36.8049H197.526C197.658 36.8049 197.763 36.7523 197.842 36.6734C197.947 36.5682 198 36.463 198 36.3315V32.5183C198 32.3868 197.947 32.2816 197.842 32.2027C197.763 32.0975 197.658 32.0449 197.526 32.0449H184.587C184.456 32.0449 184.377 31.9923 184.377 31.8345V25.444C184.377 25.3125 184.43 25.2336 184.587 25.2336H193.056C193.187 25.2336 193.292 25.2073 193.371 25.1021C193.476 24.997 193.529 24.8918 193.529 24.7603V20.947C193.529 20.8155 193.476 20.7103 193.371 20.6314C193.292 20.5262 193.187 20.4736 193.056 20.4736H184.587C184.456 20.4736 184.377 20.421 184.377 20.2632V14.162C184.377 14.0305 184.456 13.9779 184.587 13.9779Z" fill="black"/>
<path d="M145.588 12.3474L142.774 11.6111V9.3757C142.774 8.90233 142.458 8.50785 142.038 8.37636L138.882 7.42962V5.19426C138.882 3.87935 138.119 2.69592 136.909 2.19625C130.466 -0.643968 123.971 -0.1443 118.132 3.61636C115.292 5.43095 113.057 7.7452 111.426 9.82277C108.612 6.1147 104.773 3.51117 100.144 2.16995C94.8057 0.618352 89.4672 1.09172 86.2325 2.06476C84.8386 2.48553 83.8919 3.77415 83.8919 5.22056V7.53482L81.2095 8.45526C80.7887 8.61305 80.4994 9.00752 80.4994 9.4546V11.8477L77.5277 13.2679C77.1595 13.4519 76.9229 13.8201 76.9229 14.2146V47.0349C76.9229 47.3768 77.1069 47.7187 77.3962 47.9028C77.5803 48.008 77.7644 48.0869 77.9748 48.0869C78.1063 48.0869 78.2641 48.0606 78.3956 48.008C91.2291 42.5905 101.617 42.5642 110.19 47.9291C110.19 47.9291 110.848 48.5076 111.926 47.8502C115.739 45.5359 125.864 39.3558 144.904 47.1664C145.22 47.2979 145.588 47.2716 145.877 47.0612C146.166 46.8771 146.35 46.5352 146.35 46.1934V13.373C146.377 12.8997 146.061 12.4789 145.588 12.3474ZM99.6709 41.9856C93.5171 41.2756 86.5743 42.4327 79.053 45.4044V14.8195L80.5257 14.1094V39.5399C80.5257 39.8555 80.6572 40.1711 80.9202 40.3551C81.1569 40.5655 81.4988 40.6181 81.8143 40.5655C90.861 38.5669 97.7511 40.1185 102.59 42.4327C101.67 42.2749 100.723 42.0908 99.6709 41.9856ZM89.8879 37.5675C87.6526 37.5675 85.2331 37.7779 82.6296 38.2776V10.1646L83.9182 9.71758V32.8338C83.9182 34.6484 85.3909 36.1211 87.2055 36.1211C88.4152 36.1211 89.4935 35.4636 90.0457 34.4643C96.2258 35.0166 101.012 38.0146 104.326 40.9863C100.723 39.1191 95.9103 37.5675 89.8879 37.5675ZM110.085 44.0895C106.009 38.6194 99.1712 33.3072 90.4928 32.3867V7.8504C92.6756 7.56111 95.4895 7.64001 98.3034 8.45526C102.879 9.79647 106.246 12.7682 108.244 17.3178C108.612 18.133 109.27 18.7379 110.059 19.0535V44.0895H110.085ZM112.189 43.9317V19.1324C113.03 18.8957 113.741 18.3171 114.161 17.5282C114.845 16.2396 117.449 11.8477 121.709 9.11272C125.128 6.92995 128.599 6.37769 132.307 7.45592V32.3341C127.863 32.7286 123.629 34.2539 119.684 36.8838C116.239 39.2243 113.767 41.9067 112.189 43.9317ZM120.867 38.6457C124.549 36.1737 128.546 34.7536 132.728 34.438C133.28 35.4374 134.358 36.1211 135.594 36.1211C137.409 36.1211 138.882 34.6484 138.882 32.8338V9.61238L140.696 10.1646V38.2776C130.44 36.3841 122.708 38.5669 117.58 41.2493C118.527 40.3551 119.631 39.4873 120.867 38.6457ZM144.273 44.5892C138.382 42.3275 132.781 41.1967 127.626 41.1967C125.996 41.1967 124.418 41.3019 122.892 41.5386C122.314 41.6175 121.762 41.7227 121.236 41.8279C129.704 38.5669 138.408 39.9344 141.538 40.5918C141.853 40.6707 142.169 40.5918 142.432 40.3814C142.669 40.1711 142.826 39.8818 142.826 39.5662V13.8201L144.299 14.2146V44.5892H144.273Z" fill="black"/>
</svg>
