<?xml version="1.0" encoding="utf-8"?>
<!-- Generator: Adobe Illustrator 26.0.1, SVG Export Plug-In . SVG Version: 6.00 Build 0)  -->
<svg version="1.1" id="Laag_1" xmlns="http://www.w3.org/2000/svg" xmlns:xlink="http://www.w3.org/1999/xlink" x="0px" y="0px"
	 width="238px" height="50px" viewBox="0 0 238 50" style="enable-background:new 0 0 238 50;" xml:space="preserve">
<style type="text/css">
	.st0{fill-rule:evenodd;clip-rule:evenodd;fill:#FF0000;}
</style>
<path class="st0" d="M23.1,27.4l-0.4-9.6l8.3-5.2l8.4,4.5l0.4,9.9l-8.3,5.2L23.1,27.4z"/>
<path class="st0" d="M6.6,25.5L6.5,11.7L24.6,0.4l8.6,5.2c-6.2,4-9.1,5.8-15.4,9.7l-0.1,3.7L6.6,25.5z"/>
<path class="st0" d="M7.4,44.8L0,33l17.8-10.4l0.7,7.6l6.7,3.4L7.4,44.8z"/>
<path class="st0" d="M16.7,42.9L29,49.2L47.4,38l-1.2-9.6c-6.4,3.8-8.8,5.4-15.2,9.2L27.7,36L16.7,42.9z"/>
<path class="st0" d="M70.7,20.5h2.8V8.1h4.7V5.5c-4.3,0-8,0-12.3,0v2.6h4.7V20.5z M95.5,20.5V5.6h-2.8v6.3h-7.3V5.6h-2.8v14.9h2.8
	v-6h7.3v6H95.5z M111.7,17.7h-8.4v-3.4h8.1v-2.6h-8.1V8.3h8.4V5.5h-11.2c0,5,0,10,0,15h11.2V17.7z"/>
<path class="st0" d="M77.7,39.9c-1,1-2.5,1.5-3.8,1.5c-3.7,0-5.1-2.6-5.1-5.1c0-2.5,1.5-5.2,5.1-5.2c1.3,0,2.6,0.4,3.6,1.4l1.9-1.8
	c-1.5-1.5-3.5-2.3-5.5-2.3c-5.4,0-7.9,4-7.9,7.9c0,3.9,2.4,7.7,7.9,7.7c2.2,0,4.1-0.7,5.7-2.2L77.7,39.9z"/>
<path class="st0" d="M94.9,43.7h3.1l-6.7-15h-3.1l-6.7,15h3.1l1.3-2.8h7.8L94.9,43.7z M92.5,38.3h-5.5l2.8-6.4L92.5,38.3z"/>
<path class="st0" d="M114.9,43.5l-4.5-5.1c2.8-0.6,3.8-2.6,3.8-4.7c0-2.6-1.9-4.9-5.4-5c-2.4,0-4.7,0-7.1,0v15h2.8v-5h2.7l4.4,5h3.3
	V43.5z M108.8,31.4c1.8,0,2.6,1.2,2.6,2.4c0,1.2-0.8,2.4-2.6,2.4h-4.3v-4.8H108.8z"/>
<path class="st0" d="M121.4,31.4h4.2c3.6,0,3.6,5.3,0,5.3h-4.2V31.4z M125.6,28.7c-2.3,0-4.7,0-7,0v15h2.8v-4.4h4.2
	C132.9,39.3,132.9,28.7,125.6,28.7z"/>
<path class="st0" d="M146.6,40.9h-8.4v-3.4h8.1v-2.6h-8.1v-3.5h8.4v-2.7h-11.2c0,5,0,10,0,15h11.2V40.9z"/>
<path class="st0" d="M161.5,38l-7.3-9.3h-2.3v15h2.8V33.6l7.9,10.1h1.8v-15h-2.8V38z"/>
<path class="st0" d="M173.3,43.7h2.8V31.3h4.7v-2.6c-4.3,0-8,0-12.3,0v2.6h4.7V43.7z"/>
<path class="st0" d="M198.2,43.5l-4.5-5.1c2.8-0.6,3.8-2.6,3.8-4.7c0-2.6-1.9-4.9-5.4-5c-2.4,0-4.7,0-7.1,0v15h2.8v-5h2.7l4.4,5h3.4
	V43.5z M192.1,31.4c1.8,0,2.6,1.2,2.6,2.4c0,1.2-0.8,2.4-2.6,2.4h-4.3v-4.8H192.1z"/>
<path class="st0" d="M204.7,43.7v-15h-2.8v15H204.7z"/>
<path class="st0" d="M221,40.9h-8.4v-3.4h8.1v-2.6h-8.1v-3.5h8.4v-2.7h-11.2c0,5,0,10,0,15H221V40.9z"/>
<path class="st0" d="M237.5,31.2c-1.1-2.3-3.5-3-5.9-3c-2.8,0-5.8,1.3-5.8,4.4c0,3.4,2.8,4.2,5.9,4.5c2,0.2,3.5,0.8,3.5,2.2
	c0,1.6-1.7,2.2-3.4,2.2c-1.8,0-3.5-0.7-4.2-2.4l-2.3,1.2c1.1,2.7,3.5,3.7,6.5,3.7c3.3,0,6.3-1.4,6.3-4.8c0-3.6-2.9-4.4-6-4.8
	c-1.8-0.2-3.3-0.6-3.3-1.9c0-1.1,1-2,3.1-2c1.6,0,3,0.8,3.5,1.7L237.5,31.2z"/>
<path class="st0" d="M55.6,0.4v48.9h1.6V0.4H55.6z"/>
</svg>
