<?xml version="1.0" encoding="utf-8"?>
<!-- Generator: Adobe Illustrator 26.0.1, SVG Export Plug-In . SVG Version: 6.00 Build 0)  -->
<svg version="1.1" id="Laag_1" xmlns="http://www.w3.org/2000/svg" xmlns:xlink="http://www.w3.org/1999/xlink" x="0px" y="0px"
	 width="76.9px" height="79.2px" viewBox="0 0 76.9 79.2" style="enable-background:new 0 0 76.9 79.2;" xml:space="preserve">
<style type="text/css">
	.st0{fill-rule:evenodd;clip-rule:evenodd;fill:#FF0000;}
</style>
<path id="path2" class="st0" d="M37.4,43.8l-0.6-15.6l13.5-8.5l13.6,7.3l0.7,16l-13.5,8.5L37.4,43.8z"/>
<path id="path4" class="st0" d="M10.7,40.7l-0.1-22.5L39.9,0l14,8.4c-10.1,6.6-14.7,9.3-25,15.7l-0.2,6L10.7,40.7z"/>
<path id="path6" class="st0" d="M12,72L0,52.9l28.8-16.8l1.2,12.3L40.7,54L12,72z"/>
<path id="path8" class="st0" d="M27.1,68.9L47,79.2L76.9,61L75,45.3c-10.3,6.2-14.3,8.8-24.7,15l-5.4-2.6L27.1,68.9z"/>
</svg>
